<?xml version="1.0" encoding="UTF-8"?>
<svg version="1.1" xmlns="http://www.w3.org/2000/svg" width="500" height="500">
<path d="M0 0 C1.71875 1.61328125 1.71875 1.61328125 2.71875 4.61328125 C4.65754524 5.4632407 4.65754524 5.4632407 7.07421875 5.9375 C8.45528809 6.26633179 8.45528809 6.26633179 9.86425781 6.60180664 C11.37004395 6.94779907 11.37004395 6.94779907 12.90625 7.30078125 C45.55161735 15.38109208 101.86040135 34.82575827 121.71875 64.61328125 C121.34375 67.30078125 121.34375 67.30078125 120.71875 69.61328125 C118.30610146 70.4995603 117.10699952 70.75620422 114.66015625 69.85546875 C113.87511719 69.40429688 113.09007812 68.953125 112.28125 68.48828125 C111.31316406 67.93398437 110.34507812 67.3796875 109.34765625 66.80859375 C105.66845745 64.6076162 102.04164442 62.32320155 98.40893555 60.04663086 C75.05919963 45.43582868 50.60513939 33.25511854 23.71875 26.61328125 C22.74035156 26.36964844 21.76195312 26.12601563 20.75390625 25.875 C14.24613708 24.53328602 7.71642449 24.38694773 1.09375 24.30078125 C0.22266602 24.28297607 -0.64841797 24.2651709 -1.54589844 24.24682617 C-10.82416093 24.25820947 -18.87978131 26.09867228 -25.65234375 32.6796875 C-30.5170041 38.45428432 -30.79877592 44.78065586 -30.65234375 52.13671875 C-30.03810443 57.89117134 -28.266069 63.19933299 -26.28125 68.61328125 C-25.40557373 68.5975708 -25.40557373 68.5975708 -24.51220703 68.58154297 C-21.81026699 68.53940017 -19.10839649 68.5137732 -16.40625 68.48828125 C-15.4884375 68.47152344 -14.570625 68.45476562 -13.625 68.4375 C1.93095802 68.327951 15.2499749 72.9022645 26.71875 83.61328125 C30.0402457 86.95625214 32.67278789 90.37398419 34.96875 94.48828125 C36.36692278 97.67148557 36.36692278 97.67148557 38.71875 98.61328125 C38.76 97.66453125 38.80125 96.71578125 38.84375 95.73828125 C39.98018752 88.25294612 44.34943101 82.23136485 50.34375 77.80078125 C63.93241589 69.11799323 78.31046396 66.92644052 94.109375 69.07421875 C104.30398567 71.34265306 114.33500392 76.1016198 120.71875 84.61328125 C124.24209583 90.63233038 126.85889575 96.06696908 126.90625 103.11328125 C126.92042969 104.07234375 126.93460938 105.03140625 126.94921875 106.01953125 C126.71875 108.61328125 126.71875 108.61328125 124.71875 111.61328125 C119.87662139 113.22732412 114.91400213 112.79780225 109.84375 112.80078125 C108.75449219 112.81302734 107.66523438 112.82527344 106.54296875 112.83789062 C105.48980469 112.83982422 104.43664062 112.84175781 103.3515625 112.84375 C102.39137207 112.84785889 101.43118164 112.85196777 100.44189453 112.85620117 C97.46868866 112.59097436 95.36274087 111.99428667 92.71875 110.61328125 C91.03125 107.55078125 91.03125 107.55078125 89.71875 104.61328125 C87.27920342 103.39350796 85.56569151 103.41174312 82.84375 103.36328125 C81.98007812 103.3375 81.11640625 103.31171875 80.2265625 103.28515625 C77.26850351 103.67219201 75.92673216 104.6620412 73.71875 106.61328125 C74.04875 107.60328125 74.37875 108.59328125 74.71875 109.61328125 C77.2628206 110.58892299 77.2628206 110.58892299 80.40625 111.17578125 C81.58445312 111.42585938 82.76265625 111.6759375 83.9765625 111.93359375 C87.57221525 112.58666638 91.15644338 113.09061649 94.78125 113.55078125 C104.83941868 114.92539764 115.10064161 117.52316057 122.71875 124.61328125 C126.49215755 129.59580218 128.85929832 134.66303589 130.71875 140.61328125 C136.71903041 128.22397432 142.67616925 115.81777874 148.40625 103.30078125 C148.85532715 102.32149658 149.3044043 101.34221191 149.76708984 100.33325195 C151.97626191 95.49661969 154.14847322 90.64718636 156.265625 85.76953125 C156.66950439 84.84696533 157.07338379 83.92439941 157.48950195 82.97387695 C158.24529411 81.24230795 158.99184348 79.50666319 159.72729492 77.76635742 C162.99233134 70.30285817 162.99233134 70.30285817 166.71875 68.61328125 C169.99609375 68.14453125 169.99609375 68.14453125 173.65625 68.11328125 C174.86152344 68.08234375 176.06679688 68.05140625 177.30859375 68.01953125 C181.72585833 68.78863115 182.81340296 70.23730443 185.71875 73.61328125 C187.21526705 76.07482874 188.42028695 78.63580508 189.6171875 81.25390625 C189.96885483 82.00050507 190.32052216 82.74710388 190.68284607 83.5163269 C191.8305384 85.96045649 192.96231971 88.41158669 194.09375 90.86328125 C194.89466225 92.57831932 195.69634884 94.29299596 196.4987793 96.00732422 C202.20416039 108.22521522 207.82385711 120.48472732 213.35131836 132.78417969 C216.33634848 139.42043168 219.37337544 146.02196506 222.5390625 152.57421875 C223.15419842 153.85776238 223.76903154 155.14145118 224.38354492 156.42529297 C225.52466098 158.80929999 226.68543036 161.17952549 227.8605957 163.54736328 C230.89431755 169.8876738 232.68513049 174.55940908 231.71875 181.61328125 C230.39501953 183.33911133 230.39501953 183.33911133 228.71875 184.61328125 C225.36328125 184.90625 225.36328125 184.90625 221.53125 184.80078125 C220.25894531 184.77371094 218.98664063 184.74664062 217.67578125 184.71875 C216.69996094 184.68394531 215.72414063 184.64914062 214.71875 184.61328125 C215.04875 186.92328125 215.37875 189.23328125 215.71875 191.61328125 C216.358125 191.73703125 216.9975 191.86078125 217.65625 191.98828125 C218.336875 192.19453125 219.0175 192.40078125 219.71875 192.61328125 C222.87027999 198.91634123 221.30303922 210.09206497 219.15625 216.55078125 C214.0050033 228.58843144 205.07637877 235.52983748 193.3203125 240.58203125 C162.08623842 252.96310566 121.70021554 240.60697814 92.4453125 227.96484375 C86.4769758 225.30232229 80.5819979 222.49914845 74.71875 219.61328125 C73.92887695 219.22527344 73.13900391 218.83726562 72.32519531 218.4375 C53.72229916 209.18915637 35.95490865 197.67443462 19.5534668 184.9309082 C18.84488525 184.38136475 18.13630371 183.83182129 17.40625 183.265625 C16.766875 182.76023193 16.1275 182.25483887 15.46875 181.73413086 C13.67020157 180.36809652 13.67020157 180.36809652 10.90625 180.55078125 C9.854375 180.90140625 8.8025 181.25203125 7.71875 181.61328125 C-0.18077923 184.19391941 -7.33463086 185.05871507 -15.625 185.01171875 C-16.75651489 185.01458893 -17.88802979 185.01745911 -19.05383301 185.02041626 C-21.42358914 185.02244327 -23.79336252 185.01700977 -26.16308594 185.00439453 C-29.79920267 184.9882013 -33.43422804 185.00435173 -37.0703125 185.0234375 C-39.38021079 185.02145718 -41.6901084 185.01761788 -44 185.01171875 C-45.08744507 185.01779144 -46.17489014 185.02386414 -47.29528809 185.03012085 C-48.80330994 185.01593613 -48.80330994 185.01593613 -50.34179688 185.00146484 C-51.66769836 184.99788467 -51.66769836 184.99788467 -53.02038574 184.99423218 C-55.76932994 184.5310408 -56.62028671 183.81667333 -58.28125 181.61328125 C-59.46944823 178.04868656 -59.37007025 175.26921661 -59.32788086 171.50585938 C-59.3151002 170.010867 -59.30266025 168.51587168 -59.29051208 167.02087402 C-59.27863767 165.83083015 -59.27863767 165.83083015 -59.26652336 164.616745 C-59.22414797 159.48884397 -59.23625196 154.36070082 -59.23641109 149.23265839 C-59.23343448 144.74778076 -59.21324834 140.26430406 -59.15454102 135.77978516 C-58.30314073 108.69909447 -58.30314073 108.69909447 -69.07730103 84.50065613 C-71.26403746 81.072611 -72.49280767 77.26223813 -73.78125 73.42578125 C-74.02195724 72.71878586 -74.26266449 72.01179047 -74.51066589 71.28337097 C-75.13906413 69.4032333 -75.71618875 67.51334243 -76.28125 65.61328125 C-76.65507813 64.38609375 -77.02890625 63.15890625 -77.4140625 61.89453125 C-78.73199564 56.42377746 -78.64954073 50.89966694 -78.65625 45.30078125 C-78.68074219 44.23666016 -78.70523438 43.17253906 -78.73046875 42.07617188 C-78.77212095 30.69817794 -75.2638732 21.54493762 -68.28125 12.61328125 C-67.54648438 11.67162109 -67.54648438 11.67162109 -66.796875 10.7109375 C-54.05160332 -3.70636239 -17.22458892 -10.47042648 0 0 Z M-3.28125 106.61328125 C-1.72624019 110.43012351 0.75470495 112.80523857 3.71875 115.61328125 C2.36853174 111.19438512 0.45759332 109.26982782 -3.28125 106.61328125 Z M43.71875 129.61328125 C43.38002487 131.02866842 43.04800376 132.44566088 42.71875 133.86328125 C42.533125 134.6521875 42.3475 135.44109375 42.15625 136.25390625 C41.59720172 138.86884127 41.59720172 138.86884127 41.71875 142.61328125 C49.30875 142.61328125 56.89875 142.61328125 64.71875 142.61328125 C62.59162018 141.54971634 60.46204205 140.49056233 58.31640625 139.46484375 C52.74468753 136.76912776 48.124486 134.01901725 43.71875 129.61328125 Z M173.71875 129.61328125 C171.35573473 133.01602324 170.71875 134.34340502 170.71875 138.61328125 C173.02875 138.61328125 175.33875 138.61328125 177.71875 138.61328125 C176.72875 135.64328125 175.73875 132.67328125 174.71875 129.61328125 C174.38875 129.61328125 174.05875 129.61328125 173.71875 129.61328125 Z M68.71875 143.61328125 C69.70875 144.10828125 69.70875 144.10828125 70.71875 144.61328125 C70.986875 145.39703125 71.255 146.18078125 71.53125 146.98828125 C73.05374037 150.35378627 74.42233328 151.0155751 77.71875 152.61328125 C80.70197164 153.08392464 80.70197164 153.08392464 83.78125 152.98828125 C85.31458984 152.99988281 85.31458984 152.99988281 86.87890625 153.01171875 C90.02132047 152.57082982 91.39637023 151.71846004 93.71875 149.61328125 C93.38875 148.62328125 93.05875 147.63328125 92.71875 146.61328125 C87.74876889 144.30858969 82.7230743 144.1941884 77.34375 143.98828125 C76.51230469 143.94960938 75.68085938 143.9109375 74.82421875 143.87109375 C72.78939844 143.77753879 70.75410584 143.69435412 68.71875 143.61328125 Z M156.71875 171.61328125 C154.73875 175.24328125 152.75875 178.87328125 150.71875 182.61328125 C146.49682913 184.72424169 140.98682236 183.84016516 136.3425293 183.85351562 C134.29239437 183.86322845 132.24325926 183.8942557 130.19335938 183.92578125 C128.90365234 183.9309375 127.61394531 183.93609375 126.28515625 183.94140625 C124.50540405 183.9554248 124.50540405 183.9554248 122.68969727 183.96972656 C119.71875 183.61328125 119.71875 183.61328125 117.93334961 182.28027344 C116.82095822 180.75355818 115.76657178 179.18501392 114.71875 177.61328125 C114.24308594 177.95101562 113.76742187 178.28875 113.27734375 178.63671875 C106.05291274 183.24013151 99.10431537 183.87305348 90.71875 184.61328125 C93.50823355 188.01560588 97.34475121 189.61184112 101.21875 191.48828125 C101.94288086 191.84269287 102.66701172 192.19710449 103.41308594 192.56225586 C104.86164534 193.26834001 106.31181305 193.97113545 107.76367188 194.67041016 C109.35262916 195.43671298 110.93513706 196.21637819 112.515625 197 C135.07602558 207.81318563 165.23116045 218.32885077 189.984375 209.8359375 C196.32340374 207.01724724 201.08440024 202.05802977 203.71875 195.61328125 C204.17150278 192.79831384 204.17150278 192.79831384 204.34375 189.86328125 C204.41851562 188.8784375 204.49328125 187.89359375 204.5703125 186.87890625 C204.64378906 185.75742187 204.64378906 185.75742187 204.71875 184.61328125 C203.6875 184.51015625 202.65625 184.40703125 201.59375 184.30078125 C197.71875 182.61328125 197.71875 182.61328125 191.71875 171.61328125 C180.16875 171.61328125 168.61875 171.61328125 156.71875 171.61328125 Z " fill="#070707" transform="translate(176.28125,132.38671875)"/>
<path d="M0 0 C0.79599609 0.3088916 1.59199219 0.6177832 2.41210938 0.93603516 C26.17364782 10.30658738 47.85206786 23.80115141 69 38 C68.01 38.33 67.02 38.66 66 39 C64.08203125 37.8828125 64.08203125 37.8828125 61.8125 36.125 C54.90482811 31.08209875 47.52587367 27.03450728 40 23 C39.36320313 22.6582373 38.72640625 22.31647461 38.0703125 21.96435547 C21.79418816 13.32399589 4.09774185 5.18725581 -14 1.375 C-15.11375 1.13523438 -16.2275 0.89546875 -17.375 0.6484375 C-24.75437444 -0.67157991 -32.0092852 -1.18139012 -39.5 -1.1875 C-40.68529297 -1.20586914 -40.68529297 -1.20586914 -41.89453125 -1.22460938 C-49.05379738 -1.24218531 -56.36982968 -0.68166046 -62.375 3.5625 C-64.70036024 5.17494116 -66.26424292 6.08808097 -69 7 C-70.08431094 8.74867483 -70.08431094 8.74867483 -71 11 C-71.515625 11.99 -72.03125 12.98 -72.5625 14 C-77.35609906 24.00403281 -75.56874689 35.86248393 -72 46 C-71.62488281 47.07378906 -71.24976563 48.14757812 -70.86328125 49.25390625 C-68.4352525 55.86396559 -65.67514823 61.99760891 -62 68 C-61.49855469 68.83789062 -60.99710938 69.67578125 -60.48046875 70.5390625 C-51.31198896 85.44052613 -35.17801435 110.91099283 -19 119 C-19 119.66 -19 120.32 -19 121 C-18.45859375 121.22171875 -17.9171875 121.4434375 -17.359375 121.671875 C-14.23938345 123.42816164 -11.81955375 125.79245244 -9.25 128.25 C-4.7450751 132.55232246 -0.01913416 136.31371816 5 140 C6.30012883 140.98571223 7.59832773 141.97397544 8.89453125 142.96484375 C15.62731872 148.08288111 22.34968183 153.05540342 29.5625 157.48828125 C31.90981368 158.94406714 34.16944151 160.48700937 36.4375 162.0625 C41.69483836 165.58287321 47.31638314 168.24390737 53 171 C54.96531431 171.98418065 56.92693644 172.97550448 58.88867188 173.96679688 C73.50669954 181.58799187 73.50669954 181.58799187 89 187 C90.216875 187.474375 91.43375 187.94875 92.6875 188.4375 C105.16638818 193.20742251 118.44744815 195.3548831 131.75 195.1875 C132.73871094 195.18685547 133.72742188 195.18621094 134.74609375 195.18554688 C143.63020843 195.6414791 143.63020843 195.6414791 151.5 192.6875 C151.995 192.130625 152.49 191.57375 153 191 C154.15050979 190.30582222 155.3195184 189.64188687 156.5 189 C158.60165497 187.8520372 160.04247967 186.95752033 161.75 185.25 C162.1625 184.8375 162.575 184.425 163 184 C163.99 184 164.98 184 166 184 C167.53332291 177.66226532 168.48446121 171.49850211 169 165 C169.66 165 170.32 165 171 165 C171.67720411 177.54708727 170.53276815 189.21732204 162.0390625 199.06640625 C151.69145943 208.87878848 138.97438703 210.53650731 125.25 210.375 C124.01080811 210.36557373 122.77161621 210.35614746 121.49487305 210.34643555 C112.61195393 210.2000106 104.57347396 209.43261199 96 207 C94.12248047 206.52433594 94.12248047 206.52433594 92.20703125 206.0390625 C73.54324069 201.12443803 55.60005559 193.37483734 38.78564453 183.97558594 C36.11105861 182.51432735 33.36916693 181.19977024 30.625 179.875 C24.79900732 176.98176618 19.41447219 173.59543692 14 170 C12.79975905 169.21571734 11.59922198 168.43188772 10.3984375 167.6484375 C-0.79376759 160.30907467 -11.43221269 152.4154705 -21.72265625 143.84765625 C-24.05997757 141.8925113 -24.05997757 141.8925113 -27 140 C-27 139.34 -27 138.68 -27 138 C-27.556875 137.76152344 -28.11375 137.52304687 -28.6875 137.27734375 C-31.52296753 135.71113111 -33.62722978 133.76526991 -36 131.5625 C-39.52881363 128.29566918 -39.52881363 128.29566918 -43.3125 125.33984375 C-43.869375 124.89769531 -44.42625 124.45554687 -45 124 C-45 123.34 -45 122.68 -45 122 C-45.99 121.67 -46.98 121.34 -48 121 C-48 120.34 -48 119.68 -48 119 C-48.66 119 -49.32 119 -50 119 C-51.55078125 117.4609375 -51.55078125 117.4609375 -53.3125 115.375 C-53.93382812 114.64539063 -54.55515625 113.91578125 -55.1953125 113.1640625 C-56.69724624 111.36304239 -58.19443598 109.55836946 -59.6875 107.75 C-61.82783877 105.10357839 -61.82783877 105.10357839 -63.7578125 103.3203125 C-82.84892788 83.56400146 -102.75244869 52.47470209 -103.375 24.375 C-103.15582292 15.04567989 -101.25400461 6.21385184 -95 -1 C-69.13080001 -23.87529619 -28.54539018 -11.10304462 0 0 Z " fill="#F8F8F8" transform="translate(213,150)"/>
<path d="M0 0 C1.93166016 0.01740234 1.93166016 0.01740234 3.90234375 0.03515625 C5.19269531 0.04417969 6.48304688 0.05320313 7.8125 0.0625 C8.81152344 0.07410156 9.81054688 0.08570313 10.83984375 0.09765625 C11.65817097 1.99098159 12.46926643 3.88743358 13.27734375 5.78515625 C13.95603516 7.36876953 13.95603516 7.36876953 14.6484375 8.984375 C15.6943183 11.71738154 16.37505123 14.21807962 16.83984375 17.09765625 C17.49984375 17.09765625 18.15984375 17.09765625 18.83984375 17.09765625 C21.02409937 21.31014923 23.04523619 25.4915145 24.77734375 29.91015625 C27.76281902 37.51905237 31.19940514 44.87553395 34.90234375 52.16015625 C36.64889835 55.61798152 38.27037737 59.04191701 39.65234375 62.66015625 C43.9346062 73.76165175 49.42508605 84.51773269 54.8671875 95.08984375 C56.77590139 99.02991981 57.83984375 101.64012139 57.83984375 106.09765625 C48.59984375 106.09765625 39.35984375 106.09765625 29.83984375 106.09765625 C24.83984375 95.09765625 24.83984375 95.09765625 24.83984375 93.09765625 C10.97984375 93.09765625 -2.88015625 93.09765625 -17.16015625 93.09765625 C-18.15015625 96.06765625 -19.14015625 99.03765625 -20.16015625 102.09765625 C-20.82015625 103.41765625 -21.48015625 104.73765625 -22.16015625 106.09765625 C-31.07015625 106.09765625 -39.98015625 106.09765625 -49.16015625 106.09765625 C-50.49565859 102.09114924 -49.4149144 100.78024528 -47.703125 96.96875 C-47.16751953 95.76927734 -46.63191406 94.56980469 -46.08007812 93.33398438 C-45.65359985 92.39921265 -45.65359985 92.39921265 -45.21850586 91.44555664 C-44.35139159 89.54335055 -43.49977014 87.63479031 -42.65039062 85.72460938 C-38.44350844 76.38100844 -38.44350844 76.38100844 -36.16015625 74.09765625 C-35.92683594 73.03417969 -35.69351562 71.97070312 -35.453125 70.875 C-34.03703044 64.7886611 -31.14872398 59.29975458 -28.45367432 53.69900513 C-26.7617216 50.18262148 -25.0929688 46.65523785 -23.421875 43.12890625 C-23.07459351 42.39756973 -22.72731201 41.66623322 -22.36950684 40.91273499 C-18.05881487 31.81276329 -13.92322545 22.63299052 -9.79092407 13.45095825 C-9.15940493 12.04781875 -8.52708505 10.64503929 -7.8938446 9.24267578 C-7.06490167 7.40684486 -6.23865681 5.56979634 -5.41259766 3.73266602 C-3.69266981 0.11411217 -3.69266981 0.11411217 0 0 Z M6.83984375 59.09765625 C4.47682848 62.50039824 3.83984375 63.82778002 3.83984375 68.09765625 C6.14984375 68.09765625 8.45984375 68.09765625 10.83984375 68.09765625 C9.84984375 65.12765625 8.85984375 62.15765625 7.83984375 59.09765625 C7.50984375 59.09765625 7.17984375 59.09765625 6.83984375 59.09765625 Z " fill="#F9F9F9" transform="translate(343.16015625,202.90234375)"/>
<path d="M0 0 C0.76006348 -0.00080566 1.52012695 -0.00161133 2.30322266 -0.00244141 C15.1780937 0.12386537 23.59315454 3.78136926 33.1953125 12.3203125 C34.8125 14.1875 34.8125 14.1875 34.8125 17.1875 C35.4725 17.1875 36.1325 17.1875 36.8125 17.1875 C40.16949188 23.62173443 39.8125 26.11797768 39.8125 34.1875 C31.2325 34.1875 22.6525 34.1875 13.8125 34.1875 C13.1525 32.2075 12.4925 30.2275 11.8125 28.1875 C6.93228469 24.52733851 1.67141239 24.49331607 -4.1875 25.1875 C-8.32151906 26.30254734 -10.74533166 27.52424749 -13.1875 31.1875 C-13.40064985 34.5978976 -13.272394 36.93281799 -12.1875 40.1875 C-9.58182767 41.1319051 -9.58182767 41.1319051 -6.3125 41.6875 C-4.41757813 42.06261719 -4.41757813 42.06261719 -2.484375 42.4453125 C0.51837487 42.98502244 3.52562883 43.44382035 6.546875 43.8671875 C17.99965248 45.48117567 28.88139061 47.17620586 37.8125 55.1875 C43.40941003 62.83378366 44.4243952 70.92638342 43.8125 80.1875 C42.23725069 89.00889616 36.99678453 96.05586819 29.8125 101.1875 C20.60046137 107.10809127 10.54351768 107.617849 -0.1875 106.1875 C-4.78212906 104.5332261 -8.29814752 102.10186494 -12.1875 99.1875 C-13.38845573 98.38086806 -14.59443575 97.58167872 -15.8046875 96.7890625 C-22.20283157 92.55116484 -22.20283157 92.55116484 -25.1875 90.1875 C-25.1875 89.5275 -25.1875 88.8675 -25.1875 88.1875 C-25.950625 87.89875 -26.71375 87.61 -27.5 87.3125 C-30.1875 86.1875 -30.1875 86.1875 -33.1875 84.1875 C-33.1875 83.5275 -33.1875 82.8675 -33.1875 82.1875 C-33.950625 81.919375 -34.71375 81.65125 -35.5 81.375 C-38.09233979 80.22954753 -39.48825537 79.42334819 -41.1875 77.1875 C-41.1875 76.1975 -41.1875 75.2075 -41.1875 74.1875 C-32.6075 74.1875 -24.0275 74.1875 -15.1875 74.1875 C-14.1975 76.1675 -13.2075 78.1475 -12.1875 80.1875 C-6.08415156 83.45715095 -0.04027677 84.10701101 6.8125 83.1875 C9.98300408 82.12913809 12.88992367 80.80393728 15.8125 79.1875 C15.8125 76.5475 15.8125 73.9075 15.8125 71.1875 C10.02303344 67.92434612 5.2890908 66.91112307 -1.3125 66.75 C-11.46404583 66.46098402 -21.73323483 64.13091198 -30.1875 58.1875 C-30.1875 57.5275 -30.1875 56.8675 -30.1875 56.1875 C-31.1775 55.8575 -32.1675 55.5275 -33.1875 55.1875 C-34.5390625 53.515625 -34.5390625 53.515625 -35.8125 51.4375 C-36.23789063 50.76203125 -36.66328125 50.0865625 -37.1015625 49.390625 C-39.53823463 44.44716068 -39.3702414 39.2855278 -39.375 33.875 C-39.38724609 33.15376953 -39.39949219 32.43253906 -39.41210938 31.68945312 C-39.43259382 24.07606947 -38.26083509 17.14866873 -33.1875 11.1875 C-22.47299642 2.70518467 -13.54539139 0.01379649 0 0 Z " fill="#FAFAFA" transform="translate(255.1875,202.8125)"/>
<path d="M0 0 C1.35286635 -0.01217482 2.70573097 -0.02454358 4.05859375 -0.03710938 C5.34636719 -0.03904297 6.63414062 -0.04097656 7.9609375 -0.04296875 C9.12157715 -0.04707764 10.2822168 -0.05118652 11.47802734 -0.05541992 C14.60391074 0.18587209 16.80757221 0.85471865 19.625 2.1875 C16.47239331 3.20083786 14.78053608 2.97790265 11.625 2.1875 C-6.37606914 0.90821652 -23.71231589 2.04684297 -38.1875 13.875 C-43.40912931 18.73619826 -47.96158566 25.9377643 -48.53613281 33.23364258 C-48.85365591 50.99093737 -46.74521376 65.89915178 -38.6875 81.875 C-38.33937256 82.56561523 -37.99124512 83.25623047 -37.63256836 83.96777344 C-32.36599194 94.26169793 -26.1924257 103.73115473 -19.0625 112.82421875 C-17.375 115.1875 -17.375 115.1875 -17.375 117.1875 C-16.715 117.1875 -16.055 117.1875 -15.375 117.1875 C-12.375 120.64903846 -12.375 120.64903846 -12.375 123.1875 C-11.715 123.1875 -11.055 123.1875 -10.375 123.1875 C-8.87622497 124.84233608 -7.45011527 126.56340512 -6.0625 128.3125 C-4.85980469 129.81296875 -4.85980469 129.81296875 -3.6328125 131.34375 C-2.88773438 132.2821875 -2.14265625 133.220625 -1.375 134.1875 C1.64638538 138.24202803 1.64638538 138.24202803 5.625 141.1875 C5.625 141.8475 5.625 142.5075 5.625 143.1875 C6.18703125 143.42082031 6.7490625 143.65414062 7.328125 143.89453125 C10.19234142 145.50687076 12.09752021 147.5068562 14.375 149.875 C21.64550503 157.28368714 29.47027516 163.77772341 37.625 170.1875 C39.05779297 171.33025391 39.05779297 171.33025391 40.51953125 172.49609375 C48.9044964 179.08804749 57.67539873 184.97901171 66.59301758 190.82299805 C68.52695473 192.12166136 70.40741821 193.47335176 72.28515625 194.8515625 C75.27533706 197.00985309 78.34772332 198.67031643 81.6875 200.25 C84.73837308 201.69726042 87.53970701 203.12907677 90.328125 205.0390625 C94.79792725 207.95184833 99.50163745 210.20641679 104.3125 212.5 C105.32256104 212.98275391 106.33262207 213.46550781 107.37329102 213.96289062 C115.93534985 217.98893289 124.63511799 221.38128179 133.57299805 224.46704102 C135.68073245 225.20706769 137.77033657 225.98619258 139.859375 226.77734375 C159.90263924 234.34130456 188.64505424 238.95108193 209.3046875 231.25 C218.99819165 226.81122369 226.81096821 221.12361506 230.90234375 211.0390625 C232.95090737 204.78401772 234.18031018 198.74667489 234.625 192.1875 C234.955 192.1875 235.285 192.1875 235.625 192.1875 C235.81706271 203.98868655 234.25494879 211.70236601 228.625 222.1875 C227.965 222.1875 227.305 222.1875 226.625 222.1875 C226.356875 222.826875 226.08875 223.46625 225.8125 224.125 C224.625 226.1875 224.625 226.1875 221.625 227.1875 C221.625 227.8475 221.625 228.5075 221.625 229.1875 C205.63908109 237.53482711 192.29634957 238.52218465 174.625 238.1875 C173.078125 238.16236328 173.078125 238.16236328 171.5 238.13671875 C152.59296797 237.17487846 133.86150715 230.6240545 116.625 223.1875 C115.147713 222.62008181 113.66869179 222.05714554 112.1875 221.5 C100.53508311 216.83903324 89.62966468 210.76426129 78.953125 204.2109375 C76.31035868 202.6041852 73.66185774 201.08517735 70.9375 199.625 C65.2595431 196.51920027 59.96440795 192.83459884 54.625 189.1875 C53.63886719 188.5275 52.65273437 187.8675 51.63671875 187.1875 C50.26966797 186.259375 50.26966797 186.259375 48.875 185.3125 C47.64523438 184.48105469 47.64523438 184.48105469 46.390625 183.6328125 C45.80796875 183.15585937 45.2253125 182.67890625 44.625 182.1875 C44.625 181.5275 44.625 180.8675 44.625 180.1875 C43.635 180.1875 42.645 180.1875 41.625 180.1875 C41.625 179.5275 41.625 178.8675 41.625 178.1875 C40.305 177.8575 38.985 177.5275 37.625 177.1875 C37.625 176.5275 37.625 175.8675 37.625 175.1875 C35.3688536 173.76696338 34.06456094 173.15086992 31.375 173.375 C28.4596075 174.23636597 25.68588198 175.29591758 22.8828125 176.46875 C16.164058 178.60759226 9.19439572 178.31989953 2.22265625 178.28515625 C1.14495468 178.2837413 0.06725311 178.28232635 -1.04310608 178.28086853 C-4.46626629 178.27529611 -7.88935975 178.26274868 -11.3125 178.25 C-13.64127509 178.24498144 -15.97005122 178.24041915 -18.29882812 178.23632812 C-23.99090798 178.22533571 -29.68294922 178.20862514 -35.375 178.1875 C-35.36976318 177.22887054 -35.36452637 176.27024109 -35.35913086 175.28256226 C-35.31474062 166.19208018 -35.31299514 157.10242625 -35.35165405 148.01190758 C-35.37018953 143.33963674 -35.37435783 138.66832436 -35.34423828 133.99609375 C-35.31565378 129.47622634 -35.32670714 124.95794832 -35.36380005 120.43815994 C-35.37117416 118.72484264 -35.36491601 117.01140375 -35.34396362 115.2981987 C-35.20464041 102.87130563 -37.39030337 95.52235433 -44.375 85.1875 C-53.73727965 67.58368483 -57.9385009 46.9754109 -54.375 27.1875 C-49.79782445 15.17241418 -41.41917582 7.60339573 -29.9765625 2.28125 C-20.37386616 -0.63497015 -9.93936768 0.00486747 0 0 Z " fill="#F9F9F9" transform="translate(154.375,130.8125)"/>
<path d="M0 0 C18.82709601 -0.50230394 33.58059776 0.70347974 48.1171875 13.9453125 C51.7198426 17.87684068 54.36094147 22.38866635 57 27 C57.598125 28.03125 58.19625 29.0625 58.8125 30.125 C61.90172308 37.60417167 62.31607985 45.05031778 62.25 53.0625 C62.26160156 54.47499023 62.26160156 54.47499023 62.2734375 55.91601562 C62.2575607 61.61975645 61.62367258 66.52976976 60 72 C56.87327251 70.62177144 54.84197456 69.03754129 52.5 66.5625 C50.56887619 64.56077596 48.8016159 62.85248362 46.5625 61.1875 C46.046875 60.795625 45.53125 60.40375 45 60 C45 59.34 45 58.68 45 58 C44.46375 57.79375 43.9275 57.5875 43.375 57.375 C38.82916237 54.74319927 35.69639278 52.24151426 34.125 47.18359375 C33.66510876 45.09579204 33.21464241 43.00589283 32.7734375 40.9140625 C31.45918721 35.96239221 28.86389747 32.79962514 25.1875 29.25 C23.126767 28.07243829 21.37876428 27.5010314 19.125 26.8125 C13.98053055 24.96430172 11.80624653 21.51737246 9 17 C8.47277344 16.15179688 7.94554687 15.30359375 7.40234375 14.4296875 C5.90711562 11.96825544 4.44934048 9.48864346 3 7 C2.44699219 6.11699219 1.89398438 5.23398438 1.32421875 4.32421875 C0 2 0 2 0 0 Z " fill="#FAFAFA" transform="translate(149,203)"/>
<path d="M0 0 C1.35286635 -0.01217482 2.70573097 -0.02454358 4.05859375 -0.03710938 C5.34636719 -0.03904297 6.63414062 -0.04097656 7.9609375 -0.04296875 C9.12157715 -0.04707764 10.2822168 -0.05118652 11.47802734 -0.05541992 C14.60391074 0.18587209 16.80757221 0.85471865 19.625 2.1875 C16.47239331 3.20083786 14.78053608 2.97790265 11.625 2.1875 C-6.37606914 0.90821652 -23.71231589 2.04684297 -38.1875 13.875 C-43.41602887 18.74262157 -48.02011103 25.99478843 -48.52026367 33.31298828 C-48.54502869 35.97962151 -48.56066339 38.64574288 -48.5625 41.3125 C-48.57474609 42.22515625 -48.58699219 43.1378125 -48.59960938 44.078125 C-48.61094647 49.38388314 -48.15580429 54.09659931 -46.70825195 59.21044922 C-46.32428059 61.48839802 -46.67762881 63.00535382 -47.375 65.1875 C-47.705 64.5275 -48.035 63.8675 -48.375 63.1875 C-50.355 64.1775 -50.355 64.1775 -52.375 65.1875 C-54.21729076 58.81091812 -54.81449651 52.8069387 -55.0625 46.1875 C-55.10955078 45.24132812 -55.15660156 44.29515625 -55.20507812 43.3203125 C-55.75024994 30.41493377 -53.23740705 21.13815799 -44.3125 11.375 C-31.5248633 -0.5959473 -16.45206032 0.00805684 0 0 Z " fill="#DFDFDF" transform="translate(154.375,130.8125)"/>
<path d="M0 0 C0.33 0 0.66 0 1 0 C1.19206271 11.80118655 -0.37005121 19.51486601 -6 30 C-6.66 30 -7.32 30 -8 30 C-8.268125 30.639375 -8.53625 31.27875 -8.8125 31.9375 C-10 34 -10 34 -13 35 C-13 35.66 -13 36.32 -13 37 C-28.98591891 45.34732711 -42.32865043 46.33468465 -60 46 C-61.03125 45.98324219 -62.0625 45.96648437 -63.125 45.94921875 C-76.83612089 45.25170533 -90.83063226 41.30018235 -103.8125 37 C-104.52946045 36.77546143 -105.2464209 36.55092285 -105.98510742 36.31958008 C-107.95703125 35.625 -107.95703125 35.625 -111 34 C-111.94921875 31.3125 -111.94921875 31.3125 -112 29 C-107.84701669 29.98453851 -103.88552839 31.43047438 -99.875 32.875 C-77.36177978 40.8756838 -45.95111324 48.50960068 -23 38 C-12.76910405 32.66718171 -6.25488308 26.58341524 -2.625 15.5 C-1.20177603 10.32408718 -0.36272822 5.35024124 0 0 Z " fill="#DFDFDF" transform="translate(389,323)"/>
<path d="M0 0 C0.66 0 1.32 0 2 0 C2.45890625 1.12277344 2.9178125 2.24554688 3.390625 3.40234375 C4.01034743 4.91409089 4.63014304 6.42580802 5.25 7.9375 C5.55035156 8.67291016 5.85070312 9.40832031 6.16015625 10.16601562 C6.61455078 11.27299805 6.61455078 11.27299805 7.078125 12.40234375 C7.35043945 13.06741943 7.62275391 13.73249512 7.90332031 14.41772461 C9.5521567 18.30012499 11.28689976 22.14552446 13 26 C5.41 26 -2.18 26 -10 26 C-6.61538462 15.84615385 -6.61538462 15.84615385 -5 11.875 C-4.66484375 11.05 -4.3296875 10.225 -3.984375 9.375 C-2.68394081 6.23744448 -1.35422471 3.11471684 0 0 Z M4 15 C1.63698473 18.40274199 1 19.73012377 1 24 C3.31 24 5.62 24 8 24 C7.01 21.03 6.02 18.06 5 15 C4.67 15 4.34 15 4 15 Z " fill="#090909" transform="translate(346,247)"/>
<path d="M0 0 C28.23125634 9.57216035 53.32109502 24.43043504 78 41 C76.515 41.495 76.515 41.495 75 42 C73.08203125 40.8828125 73.08203125 40.8828125 70.8125 39.125 C63.90482811 34.08209875 56.52587367 30.03450728 49 26 C48.36320312 25.6582373 47.72640625 25.31647461 47.0703125 24.96435547 C31.58457384 16.74358082 13.5486108 7.2498219 -4 5 C-2.68 3.35 -1.36 1.7 0 0 Z " fill="#E9E9E9" transform="translate(204,147)"/>
<path d="M0 0 C0.66 0 1.32 0 2 0 C3.4453125 1.50390625 3.4453125 1.50390625 5.125 3.5625 C8.29312862 7.31756613 11.69430236 10.45265657 15.49609375 13.5546875 C15.99238281 14.03164063 16.48867187 14.50859375 17 15 C17 15.66 17 16.32 17 17 C11.39 17 5.78 17 0 17 C0 11.39 0 5.78 0 0 Z " fill="#030303" transform="translate(147,267)"/>
<path d="M0 0 C0.33 0 0.66 0 1 0 C1.19206271 11.80118655 -0.37005121 19.51486601 -6 30 C-6.66 30 -7.32 30 -8 30 C-8.268125 30.639375 -8.53625 31.27875 -8.8125 31.9375 C-10 34 -10 34 -13 35 C-13 35.66 -13 36.32 -13 37 C-16.96 38.98 -16.96 38.98 -21 41 C-21.33 39.68 -21.66 38.36 -22 37 C-20.96875 36.443125 -19.9375 35.88625 -18.875 35.3125 C-10.10919924 30.24035319 -5.05714888 24.25869059 -2.25 14.5625 C-1.05278486 9.71952802 -0.40723192 4.96822942 0 0 Z " fill="#E0E0E0" transform="translate(389,323)"/>
<path d="M0 0 C0.99 0.495 0.99 0.495 2 1 C1.67 6.61 1.34 12.22 1 18 C6.61 18 12.22 18 18 18 C18 17.34 18 16.68 18 16 C17.4225 15.773125 16.845 15.54625 16.25 15.3125 C13.4336339 13.66961977 11.91922886 11.60466773 10 9 C10.66 9 11.32 9 12 9 C12 8.01 12 7.02 12 6 C12.66 6 13.32 6 14 6 C14 6.66 14 7.32 14 8 C14.59296875 8.25523437 15.1859375 8.51046875 15.796875 8.7734375 C18.21224538 10.11816498 19.51211706 11.49214367 21.25 13.625 C21.77078125 14.25664062 22.2915625 14.88828125 22.828125 15.5390625 C23.40820312 16.26222656 23.40820312 16.26222656 24 17 C20.93843346 18.77669223 18.75963785 19.24050818 15.234375 19.1953125 C14.34492188 19.18886719 13.45546875 19.18242187 12.5390625 19.17578125 C11.61867187 19.15902344 10.69828125 19.14226562 9.75 19.125 C8.81414062 19.11597656 7.87828125 19.10695313 6.9140625 19.09765625 C4.60926511 19.07413791 2.30459967 19.03826826 0 19 C0 12.73 0 6.46 0 0 Z " fill="#C3C3C3" transform="translate(146,266)"/>
<path d="M0 0 C14.07462733 5.41523782 26.53010746 14.66063701 39 23 C38.01 23.33 37.02 23.66 36 24 C34.08203125 22.8828125 34.08203125 22.8828125 31.8125 21.125 C21.36003228 13.48020244 9.63649034 7.6198959 -2 2 C-1.34 1.34 -0.68 0.68 0 0 Z " fill="#C8C8C8" transform="translate(243,165)"/>
<path d="M0 0 C5.09882455 1.5280389 9.65665659 3.71036856 14.375 6.125 C15.11105469 6.49753906 15.84710938 6.87007812 16.60546875 7.25390625 C18.40550358 8.1656122 20.20301402 9.08229932 22 10 C22 10.66 22 11.32 22 12 C16.59491957 11.38696372 12.07560955 9.55619307 7.125 7.4375 C6.34125 7.10814453 5.5575 6.77878906 4.75 6.43945312 C2.83091244 5.63203214 0.9151135 4.81680231 -1 4 C-0.67 2.68 -0.34 1.36 0 0 Z " fill="#D7D7D7" transform="translate(221,154)"/>
<path d="M0 0 C2.05603361 -0.00219923 4.11154052 -0.02043806 6.16748047 -0.03930664 C8.12621094 -0.04220703 8.12621094 -0.04220703 10.12451172 -0.04516602 C11.90365967 -0.05132935 11.90365967 -0.05132935 13.71875 -0.05761719 C16.87732961 0.181378 19.0857742 0.83452528 21.92919922 2.18530273 C18.77659253 3.1986406 17.0847353 2.97570539 13.92919922 2.18530273 C10.45364167 1.938305 6.97526514 1.94723874 3.49169922 1.93530273 C2.5070166 1.93135498 1.52233398 1.92740723 0.5078125 1.92333984 C-6.24151687 1.97709949 -12.13010615 2.67235864 -18.60986328 4.62670898 C-21.20313875 5.21534135 -22.59297901 5.06359167 -25.07080078 4.18530273 C-17.65750871 -0.98153719 -8.68521339 -0.00104164 0 0 Z " fill="#C0C0C0" transform="translate(152.07080078125,130.814697265625)"/>
<path d="M0 0 C3.79152334 -0.0867982 7.58279296 -0.14032207 11.375 -0.1875 C12.99535156 -0.22520508 12.99535156 -0.22520508 14.6484375 -0.26367188 C15.6796875 -0.27333984 16.7109375 -0.28300781 17.7734375 -0.29296875 C18.72653809 -0.3086792 19.67963867 -0.32438965 20.66162109 -0.34057617 C21.81911865 -0.17199097 21.81911865 -0.17199097 23 0 C23.66 0.99 24.32 1.98 25 3 C21.95809137 3.05421223 18.91716001 3.09377548 15.875 3.125 C15.0190625 3.14175781 14.163125 3.15851563 13.28125 3.17578125 C8.43412707 3.21306681 4.55292095 2.89580643 0 1 C0 0.67 0 0.34 0 0 Z " fill="#F2F2F2" transform="translate(323,366)"/>
<path d="M0 0 C0.33 0 0.66 0 1 0 C1.16564553 10.17799746 1.1379559 19.36384641 -5 28 C-7.16796875 28.7890625 -7.16796875 28.7890625 -9 29 C-8.59007812 28.2265625 -8.18015625 27.453125 -7.7578125 26.65625 C-3.11870903 17.6887964 -0.88270898 10.03500734 0 0 Z " fill="#D1D1D1" transform="translate(389,323)"/>
<path d="M0 0 C7.59 0.33 15.18 0.66 23 1 C23 1.33 23 1.66 23 2 C19.37 2.33 15.74 2.66 12 3 C12 3.33 12 3.66 12 4 C7.45194365 4.17835515 4.1205746 3.99785435 0 2 C0 1.34 0 0.68 0 0 Z " fill="#D6D6D6" transform="translate(312,364)"/>
<path d="M0 0 C1.62752231 0.25523874 3.25203196 0.52974494 4.875 0.8125 C6.23238281 1.03873047 6.23238281 1.03873047 7.6171875 1.26953125 C10 2 10 2 12 5 C7.45194365 5.17835515 4.1205746 4.99785435 0 3 C0 2.01 0 1.02 0 0 Z " fill="#EDEDED" transform="translate(288,357)"/>
<path d="M0 0 C-3.52127761 4.5929708 -7.57747597 5.11941917 -13 6 C-13 5.34 -13 4.68 -13 4 C-12.34 4 -11.68 4 -11 4 C-11 3.34 -11 2.68 -11 2 C-9.54494642 1.47007308 -8.08581873 0.9513211 -6.625 0.4375 C-5.81289063 0.14746094 -5.00078125 -0.14257812 -4.1640625 -0.44140625 C-2 -1 -2 -1 0 0 Z " fill="#EEEEEE" transform="translate(368,362)"/>
<path d="M0 0 C2.31 1.65 4.62 3.3 7 5 C5.68 5.99 4.36 6.98 3 8 C2.01 7.34 1.02 6.68 0 6 C-1.32 6 -2.64 6 -4 6 C-4 5.34 -4 4.68 -4 4 C-2.68 3.34 -1.36 2.68 0 2 C0 1.34 0 0.68 0 0 Z " fill="#DBDBDB" transform="translate(188,298)"/>
<path d="M0 0 C4.56454251 0.54339792 7.9728176 1.79463821 12 4 C12 4.66 12 5.32 12 6 C7.01208429 5.52496041 3.9767259 4.0298864 0 1 C0 0.67 0 0.34 0 0 Z " fill="#E4E4E4" transform="translate(231,160)"/>
<path d="M0 0 C3.7910119 1.44950455 7.3874638 3.15172566 11 5 C11 5.66 11 6.32 11 7 C6.14036821 6.39254603 2.2594482 4.27241033 -2 2 C-1.34 1.34 -0.68 0.68 0 0 Z " fill="#D5D5D5" transform="translate(243,165)"/>
<path d="M0 0 C1.67542976 0.28604898 3.34385343 0.61781233 5 1 C5.33 2.65 5.66 4.3 6 6 C2.34683329 4.75023244 1.21934164 4.32901247 -1 1 C-0.67 0.67 -0.34 0.34 0 0 Z " fill="#F1F1F1" transform="translate(229,329)"/>
<path d="M0 0 C0.66 0 1.32 0 2 0 C2 0.66 2 1.32 2 2 C2.66 2 3.32 2 4 2 C4 3.65 4 5.3 4 7 C2.125 6.6875 2.125 6.6875 0 6 C-0.66 5.01 -1.32 4.02 -2 3 C-1.34 3 -0.68 3 0 3 C0 2.01 0 1.02 0 0 Z " fill="#ECECEC" transform="translate(158,272)"/>
<path d="M0 0 C0.33 0.99 0.66 1.98 1 3 C0.05125 3.45375 -0.8975 3.9075 -1.875 4.375 C-5.00313679 5.80238254 -5.00313679 5.80238254 -7 8 C-7.99 7.67 -8.98 7.34 -10 7 C-6.7 4.69 -3.4 2.38 0 0 Z " fill="#A1A1A1" transform="translate(232,207)"/>
<path d="M0 0 C2.97 0.33 5.94 0.66 9 1 C7.68 1.33 6.36 1.66 5 2 C5 2.66 5 3.32 5 4 C2.03 3.505 2.03 3.505 -1 3 C-0.67 2.01 -0.34 1.02 0 0 Z " fill="#E5E5E5" transform="translate(307,362)"/>
<path d="M0 0 C1.65 0 3.3 0 5 0 C5 3 5 3 4 5 C2.68 4.34 1.36 3.68 0 3 C0 2.01 0 1.02 0 0 Z " fill="#E3E3E3" transform="translate(220,324)"/>
<path d="M0 0 C-1.98 0.99 -1.98 0.99 -4 2 C-3.67 2.66 -3.34 3.32 -3 4 C-3.99 4 -4.98 4 -6 4 C-6 3.34 -6 2.68 -6 2 C-6.99 1.67 -7.98 1.34 -9 1 C-5.57367167 -0.61798838 -3.61944899 -1.34053666 0 0 Z " fill="#767676" transform="translate(132,133)"/>
</svg>
